# xmcd CD database file
#
# Track frame offsets:
#	150
#	15084
#	31407
#	45777
#	62966
#	88533
#	106534
#	126161
#	143529
#	161676
#	184069
#	201752
#
# Disc length: 3050 seconds
#
# Revision: 7
# Processed by: cddbd v1.5.2PL0 Copyright (c) Steve Scherf et al.
# Submitted via: CDex 1.70beta2
#
DISCID=8a0be80c
DTITLE=Wolfgang Ambros - Singt Waits - Nach Mir Die Sintflut
DYEAR=2000
DGENRE=Austropop
TTITLE0=Samstag Nacht - (Looking For) The Heart Of Saturday Night
TTITLE1=Durt bin i daham - In The Neighbourhood
TTITLE2=Heimatserenade - San Diego Serenade
TTITLE3=Romeo verliert Bluat - Romeo Is Bleeding
TTITLE4=Es is vorbei - Ruby's Arms
TTITLE5=Nach mir die Sintflut - Shiver Me Timbers
TTITLE6=Die Sunn geht boid auf - OL' '55
TTITLE7=Groß in Kagran - Big In Japan
TTITLE8=Martha - Martha
TTITLE9=Weihnachtsgrüße von aner Hur aus Floridsdorf - Christmas Card From A Hooker In Minneapolis
TTITLE10=Verliab di ned - I Hope I Don't Fall In Love With You
TTITLE11=Tom Traubert's Blues - Tom Traubert's Blues
EXTD=YEAR: 2000
EXTT0=
EXTT1=
EXTT2=
EXTT3=
EXTT4=
EXTT5=
EXTT6=
EXTT7=
EXTT8=
EXTT9=
EXTT10=
EXTT11=
PLAYORDER=
